<!DOCTYPE svg PUBLIC "-//W3C//DTD SVG 1.1//EN" "http://www.w3.org/Graphics/SVG/1.1/DTD/svg11.dtd">
<!-- Uploaded to: SVG Repo, www.svgrepo.com, Transformed by: SVG Repo Mixer Tools -->
<svg fill=" #fff" width="800px" height="800px" viewBox="0 0 32 32" id="icon" xmlns="http://www.w3.org/2000/svg" stroke=" #fff">
<g id="SVGRepo_bgCarrier" stroke-width="0"/>
<g id="SVGRepo_tracerCarrier" stroke-linecap="round" stroke-linejoin="round"/>
<g id="SVGRepo_iconCarrier">
<defs>
<style>.cls-1{fill:none;}</style>
</defs>
<title>letter--Bb</title>
<path d="M23,13H19V9H17V23h6a2,2,0,0,0,2-2V15A2,2,0,0,0,23,13Zm-4,8V15h4v6Z"/>
<path d="M15,12a3,3,0,0,0-3-3H7V23h5a3,3,0,0,0,3-3V18a3,3,0,0,0-.78-2A3,3,0,0,0,15,14ZM9,11h3a1,1,0,0,1,1,1v2a1,1,0,0,1-1,1H9Zm4,9a1,1,0,0,1-1,1H9V17h3a1,1,0,0,1,1,1Z"/>
<rect id="_Transparent_Rectangle_" data-name="&lt;Transparent Rectangle&gt;" class="cls-1" width="32" height="32"/>
</g>
</svg>